<svg width="375" height="154" viewBox="0 0 375 154" fill="none" xmlns="http://www.w3.org/2000/svg">
<path d="M308.741 118.066C308.84 123.779 308.211 129.482 306.859 135.115L288.263 135.477C289.475 132.4 290.414 129.278 291.076 126.126C291.408 124.699 291.743 123.131 292.018 121.404C293.127 114.854 293.593 108.259 293.415 101.66C293.431 100.705 293.447 99.6696 293.462 98.7144C293.162 92.7994 292.387 86.8938 291.14 81.0213C290.853 79.5835 290.505 78.105 290.125 76.6259C288.372 69.5383 285.948 62.5199 282.867 55.6099C282.178 54.0862 281.459 52.5619 280.679 50.977C278.068 45.581 274.934 40.0175 271.213 34.365C276.337 40.2373 280.928 46.292 284.961 52.4981C285.991 54.0272 287.019 55.6359 287.983 57.3233C290.068 60.6806 292.179 64.317 294.225 68.1713L295.309 70.1791C295.366 70.3655 295.457 70.5474 295.579 70.7208C296.27 72.0655 296.93 73.4693 297.589 74.8731C299.688 79.2857 301.598 83.8943 303.227 88.6775L303.849 90.4988C304.115 91.2993 304.35 92.1191 304.585 92.9191L304.583 93.0385C306.62 99.7127 307.91 106.465 308.445 113.244C308.666 114.96 308.736 116.434 308.741 118.066Z" fill="#F9D6E4"/>
<path d="M313.556 126.998C313.656 132.712 313.027 138.414 311.675 144.047L293.078 144.41C294.29 141.332 295.229 138.21 295.891 135.059C296.223 133.631 296.558 132.063 296.833 130.336C297.942 123.786 298.409 117.192 298.231 110.592C298.246 109.637 298.262 108.602 298.278 107.647C297.977 101.732 297.202 95.826 295.955 89.9535C295.668 88.5157 295.32 87.0372 294.941 85.5581C293.188 78.4705 290.764 71.4521 287.682 64.5421C286.994 63.0184 286.274 61.4941 285.494 59.9092C282.884 54.5132 279.75 48.9497 276.028 43.2972C281.152 49.1695 285.743 55.2242 289.777 61.4302C290.806 62.9594 291.834 64.5681 292.799 66.2555C294.884 69.6128 296.995 73.2492 299.041 77.1035L300.124 79.1113C300.181 79.2977 300.272 79.4795 300.395 79.653C301.086 80.9977 301.745 82.4015 302.405 83.8053C304.504 88.2179 306.414 92.8265 308.042 97.6097L308.664 99.431C308.93 100.231 309.165 101.051 309.4 101.851L309.398 101.971C311.435 108.645 312.726 115.397 313.261 122.176C313.482 123.892 313.551 125.366 313.556 126.998Z" fill="#F8C0D3"/>
<path d="M321.64 45.786C321.151 45.201 309.45 31.2208 301.131 31.0889C297.62 31.3906 294.238 32.554 291.284 34.476L313.996 14.4129C314.103 14.319 314.182 14.1967 314.223 14.06C314.264 13.9232 314.265 13.7777 314.227 13.6403C314.188 13.5028 314.109 13.3797 314.001 13.2861C313.893 13.1925 313.76 13.1323 313.618 13.113C312.943 13.0028 296.78 10.4972 289.687 15.9185C281.424 22.3365 278.855 36.2098 278.127 41.9709C275.344 36.7115 267.757 24.3095 257.8 23.3355C245.676 22.148 224.83 32.5267 223.947 32.9705C223.808 33.0407 223.693 33.1525 223.62 33.2903C223.546 33.4281 223.517 33.5854 223.537 33.7403C223.557 33.893 223.624 34.0356 223.73 34.148C223.835 34.2603 223.973 34.3368 224.124 34.3667L270.892 43.787C262.509 43.9527 242.428 45.0078 236.552 51.5034C229.278 59.5693 227.968 74.3982 227.918 75.0145C227.909 75.1496 227.934 75.2851 227.991 75.4079C228.048 75.5308 228.136 75.6369 228.246 75.7164C228.371 75.7943 228.514 75.8378 228.662 75.8424C228.787 75.8392 228.91 75.8071 229.021 75.7486C229.985 75.2264 243.436 68.0149 255.68 60.3662C254.844 61.5367 254.086 62.7616 253.413 64.0326C248.916 72.6999 253.72 91.0694 253.926 91.9087C253.969 92.053 254.054 92.1818 254.169 92.279C254.284 92.3763 254.425 92.4379 254.574 92.4565C254.714 92.4565 254.852 92.4187 254.972 92.347C255.092 92.2753 255.191 92.1724 255.258 92.0492L278.618 46.1589C288.779 61.926 310.767 74.9545 311.004 75.0777C311.113 75.1397 311.235 75.1757 311.36 75.1829C311.462 75.1819 311.563 75.1609 311.657 75.121C311.751 75.081 311.836 75.023 311.907 74.9502C311.979 74.8774 312.035 74.7912 312.073 74.6966C312.111 74.602 312.13 74.5009 312.129 74.3989C312.139 73.8019 311.283 59.9539 307.226 54.734C304.534 51.2277 293.283 47.7251 285.752 45.6748L320.883 47.0678C321.027 47.073 321.17 47.0357 321.293 46.9607C321.416 46.8856 321.514 46.7761 321.575 46.6456C321.637 46.5152 321.659 46.3695 321.638 46.2268C321.618 46.0841 321.556 45.9506 321.46 45.8428L321.64 45.786Z" fill="#BC97C2"/>
<g style="mix-blend-mode:multiply">
<path d="M223.636 33.742C223.636 33.742 241.448 30.2423 255.257 33.1087C263.281 35.0044 271.009 37.9865 278.227 41.9726C278.227 41.9726 276.384 21.3411 257.893 20.0327C239.401 18.7243 223.636 33.742 223.636 33.742Z" fill="#F9D6E4"/>
</g>
<g style="mix-blend-mode:multiply">
<path d="M273.303 48.6823C273.303 48.6823 258.728 52.6912 253.539 64.8509C249.736 73.7083 254.371 94.006 254.371 94.006C254.371 94.006 252.814 67.865 273.303 48.6823Z" fill="#F9D6E4"/>
</g>
<g style="mix-blend-mode:multiply">
<path d="M314.227 13.6403C314.227 13.6403 299.167 5.55872 288.601 14.1298C278.034 22.7008 278.206 41.9722 278.206 41.9722C278.206 41.9722 288.554 17.0552 314.207 13.64" fill="#F9D6E4"/>
</g>
<g style="mix-blend-mode:multiply">
<path d="M280.082 42.9376C280.082 42.9376 293.082 29.0107 302.495 29.1599C311.908 29.3091 322.4 46.7934 322.4 46.7934C322.4 46.7934 312.978 37.1889 301.034 37.1986C290.842 37.2161 280.082 42.9376 280.082 42.9376Z" fill="#F9D6E4"/>
</g>
<g style="mix-blend-mode:multiply">
<path d="M280.05 44.9872C280.05 44.9872 299.319 46.1886 306.541 52.7326C313.762 59.2766 314.036 73.4139 312.853 76.4208C305.861 62.4806 294.275 51.3785 280.05 44.9872Z" fill="#F9D6E4"/>
</g>
<g style="mix-blend-mode:multiply">
<path d="M236.338 48.7134C241.67 43.8414 261.184 42.2199 270.992 43.7888C270.992 43.7888 240.334 51.5436 227.317 76.5776C227.317 76.5776 227.39 56.8921 236.338 48.7134Z" fill="#F9D6E4"/>
</g>
<mask id="mask0" style="mask-type:alpha" maskUnits="userSpaceOnUse" x="271" y="34" width="43" height="111">
<path d="M308.741 118.066C308.84 123.779 308.211 129.482 306.859 135.115L288.263 135.477C289.475 132.4 290.414 129.278 291.076 126.126C291.408 124.699 291.743 123.131 292.018 121.404C293.127 114.854 293.593 108.259 293.415 101.66C293.431 100.705 293.447 99.6696 293.462 98.7144C293.162 92.7994 292.387 86.8938 291.14 81.0213C290.853 79.5835 290.505 78.105 290.125 76.6259C288.372 69.5383 285.948 62.5199 282.867 55.6099C282.178 54.0862 281.459 52.5619 280.679 50.977C278.068 45.581 274.934 40.0175 271.213 34.365C276.337 40.2373 280.928 46.292 284.961 52.4981C285.991 54.0272 287.019 55.6359 287.983 57.3233C290.068 60.6806 292.179 64.317 294.225 68.1713L295.309 70.1791C295.366 70.3655 295.457 70.5474 295.579 70.7208C296.27 72.0655 296.93 73.4693 297.589 74.8731C299.688 79.2857 301.598 83.8943 303.227 88.6775L303.849 90.4988C304.115 91.2993 304.35 92.1191 304.585 92.9191L304.583 93.0385C306.62 99.7127 307.91 106.465 308.445 113.244C308.666 114.96 308.736 116.434 308.741 118.066Z" fill="#F9D6E4"/>
<path d="M313.556 126.998C313.656 132.712 313.027 138.414 311.675 144.047L293.078 144.41C294.29 141.332 295.229 138.21 295.891 135.059C296.223 133.631 296.558 132.063 296.833 130.336C297.942 123.786 298.409 117.192 298.231 110.592C298.246 109.637 298.262 108.602 298.278 107.647C297.977 101.732 297.202 95.826 295.955 89.9535C295.668 88.5157 295.32 87.0372 294.941 85.5581C293.188 78.4705 290.764 71.4521 287.682 64.5421C286.994 63.0184 286.274 61.4941 285.494 59.9092C282.884 54.5132 279.75 48.9497 276.028 43.2972C281.152 49.1695 285.743 55.2242 289.777 61.4302C290.806 62.9594 291.834 64.5681 292.799 66.2555C294.884 69.6128 296.995 73.2492 299.041 77.1035L300.124 79.1113C300.181 79.2977 300.272 79.4795 300.395 79.653C301.086 80.9977 301.745 82.4015 302.405 83.8053C304.504 88.2179 306.414 92.8265 308.042 97.6097L308.664 99.431C308.93 100.231 309.165 101.051 309.4 101.851L309.398 101.971C311.435 108.645 312.726 115.397 313.261 122.176C313.482 123.892 313.551 125.366 313.556 126.998Z" fill="#874887"/>
</mask>
<g mask="url(#mask0)">
<path d="M294.373 122.701C287.608 117.559 276.467 120.749 271.741 122.987L274.514 127.914C278.989 126.623 289.11 124.765 293.794 127.655C298.478 130.546 311.27 127.325 317.08 125.354L317.755 119.574C312.78 122.759 301.138 127.844 294.373 122.701Z" fill="#EC8BAC"/>
<path d="M298.629 104.628C293.978 101.092 286.318 103.286 283.07 104.824L284.976 108.212C288.052 107.324 295.011 106.047 298.231 108.034C301.451 110.021 310.245 107.807 314.24 106.451L314.704 102.478C311.283 104.668 303.28 108.163 298.629 104.628Z" fill="#EC8BAC"/>
<path d="M294.648 73.7703C291.266 71.1991 285.695 72.7942 283.332 73.9132L284.719 76.3768C286.956 75.7314 292.017 74.8021 294.359 76.2474C296.701 77.6927 303.097 76.0823 306.002 75.0965L306.339 72.2065C303.852 73.7991 298.031 76.3415 294.648 73.7703Z" fill="#EC8BAC"/>
<path d="M296.256 88.5529C292.451 85.6603 286.184 87.4548 283.526 88.7137L285.085 91.4852C287.603 90.7592 293.296 89.7137 295.931 91.3397C298.566 92.9657 305.761 91.154 309.029 90.0449L309.409 86.7937C306.61 88.5853 300.061 91.4455 296.256 88.5529Z" fill="#EC8BAC"/>
</g>
<g style="mix-blend-mode:multiply">
<g style="mix-blend-mode:multiply">
<path d="M380.205 153.8C342.909 158.794 304.205 153.469 266.992 148.164C249.463 145.657 231.769 143.109 215.69 138.012C196.089 131.796 179.99 122.016 163.891 112.692C139.027 98.1883 112.817 84.4511 83.4362 73.8012C58.9455 64.9331 31.3882 58.2406 3.12651 59.0694C-25.1352 59.8982 -53.8942 69.5743 -65 85.8808V260.714H380.081L380.205 153.8Z" fill="#F9D6E4"/>
</g>
</g>
<path d="M35 228.189C61.7906 202.558 95.771 183.475 129.896 168.951C243.717 120.567 364.92 91.8429 488.348 84V228.189H35Z" fill="#A47CAA"/>
<g style="mix-blend-mode:multiply">
<path d="M51 241.357H504.368V124C504.368 124 248.894 131.791 51 241.357Z" fill="#9A64A2"/>
</g>
</svg>
