<svg width="23" height="22" viewBox="0 0 23 22" fill="none" xmlns="http://www.w3.org/2000/svg">
<path d="M7.64776 0.507925C7.73128 0.591234 7.79754 0.690201 7.84275 0.799158C7.88796 0.908114 7.91124 1.02492 7.91124 1.14289C7.91124 1.26085 7.88796 1.37766 7.84275 1.48661C7.79754 1.59557 7.73128 1.69454 7.64776 1.77785L3.79674 5.62707H7.98676C10.6199 5.62707 13.1974 5.62707 15.5668 6.33736C18.0152 7.07277 20.2035 8.55076 22.1084 11.4081C22.2319 11.606 22.2735 11.8442 22.2242 12.0723C22.175 12.3003 22.0389 12.5002 21.8447 12.6295C21.6505 12.7588 21.4135 12.8074 21.1841 12.7649C20.9548 12.7223 20.751 12.5921 20.616 12.4018C18.9335 9.87808 17.0861 8.66555 15.0502 8.0557C12.9588 7.42792 10.6306 7.42074 7.90963 7.42074H3.79674L7.64776 11.27C7.73114 11.3533 7.79729 11.4523 7.84241 11.5613C7.88754 11.6702 7.91077 11.787 7.91077 11.9049C7.91077 12.0228 7.88754 12.1396 7.84241 12.2486C7.79729 12.3575 7.73114 12.4565 7.64776 12.5399C7.56437 12.6233 7.46538 12.6894 7.35644 12.7345C7.24749 12.7797 7.13072 12.8029 7.0128 12.8029C6.89487 12.8029 6.77811 12.7797 6.66916 12.7345C6.56021 12.6894 6.46122 12.6233 6.37784 12.5399L0.996817 7.15887C0.913298 7.07556 0.847034 6.97659 0.801822 6.86763C0.75661 6.75868 0.733337 6.64187 0.733337 6.52391C0.733337 6.40594 0.75661 6.28913 0.801822 6.18018C0.847034 6.07122 0.913298 5.97225 0.996817 5.88895L6.37784 0.507925C6.46114 0.424406 6.56011 0.358143 6.66907 0.312931C6.77803 0.267718 6.89483 0.244446 7.0128 0.244446C7.13076 0.244446 7.24757 0.267718 7.35653 0.312931C7.46548 0.358143 7.56445 0.424406 7.64776 0.507925ZM11.497 21.7701C12.4484 21.7701 13.3609 21.3922 14.0336 20.7194C14.7064 20.0467 15.0843 19.1342 15.0843 18.1828C15.0843 17.2314 14.7064 16.3189 14.0336 15.6461C13.3609 14.9734 12.4484 14.5954 11.497 14.5954C10.5456 14.5954 9.6331 14.9734 8.96034 15.6461C8.28759 16.3189 7.90963 17.2314 7.90963 18.1828C7.90963 19.1342 8.28759 20.0467 8.96034 20.7194C9.6331 21.3922 10.5456 21.7701 11.497 21.7701Z" fill="#874887"/>
</svg>
