<svg width="50" height="50" viewBox="0 0 50 50" fill="none" xmlns="http://www.w3.org/2000/svg">
<g clip-path="url(#clip0)">
<path d="M22.0894 2.91065C9.90927 2.91065 -1.49797e-06 12.8198 -9.65561e-07 24.9999C-4.33153e-07 37.18 9.90928 47.0894 22.0894 47.0894C22.813 47.0894 23.3996 46.5027 23.3996 45.7792C23.3996 45.0557 22.8129 44.469 22.0894 44.469C11.3541 44.469 2.62041 35.7353 2.62041 25C2.62041 14.2648 11.3542 5.53096 22.0894 5.53096C32.8246 5.53096 41.5584 14.2648 41.5584 25L41.5584 27.273L37.9202 24.0229C37.3807 23.5407 36.5523 23.5875 36.0702 24.1271C35.5881 24.6666 35.635 25.495 36.1745 25.9771L41.3752 30.6231C42.2266 31.3837 43.5105 31.3837 44.3619 30.6231L49.5626 25.9771C49.8524 25.7182 49.9999 25.3597 49.9999 24.9995C49.9999 24.6889 49.8899 24.377 49.6669 24.1271C49.1848 23.5874 48.3564 23.5407 47.8169 24.0229L44.1787 27.273L44.1787 25C44.1787 12.8198 34.2694 2.91065 22.0894 2.91065Z" fill="white"/>
<path d="M16.519 31C16.3717 31 16.247 30.949 16.145 30.847C16.043 30.745 15.992 30.626 15.992 30.49V20.256L16.179 20.426L13.867 21.803C13.799 21.8483 13.7197 21.871 13.629 21.871C13.4703 21.871 13.34 21.8143 13.238 21.701C13.136 21.5763 13.085 21.4517 13.085 21.327C13.085 21.157 13.1757 21.0153 13.357 20.902L16.23 19.168C16.3433 19.1 16.4793 19.0773 16.638 19.1C16.7627 19.1113 16.8647 19.168 16.944 19.27C17.0347 19.3607 17.08 19.474 17.08 19.61V30.49C17.08 30.626 17.0233 30.745 16.91 30.847C16.808 30.949 16.6777 31 16.519 31ZM22.4691 31.034C22.0045 31.034 21.5341 30.9603 21.0581 30.813C20.5935 30.6543 20.1798 30.422 19.8171 30.116C19.7491 30.0593 19.6925 29.9913 19.6471 29.912C19.6131 29.8327 19.5961 29.7533 19.5961 29.674C19.5961 29.5607 19.6415 29.453 19.7321 29.351C19.8228 29.2377 19.9418 29.181 20.0891 29.181C20.2138 29.181 20.3385 29.232 20.4631 29.334C20.7578 29.5607 21.0751 29.7363 21.4151 29.861C21.7665 29.9857 22.1178 30.048 22.4691 30.048C23.1265 30.048 23.7045 29.9177 24.2031 29.657C24.7018 29.3963 25.0871 29.0337 25.3591 28.569C25.6425 28.093 25.7841 27.549 25.7841 26.937C25.7841 26.359 25.6595 25.8603 25.4101 25.441C25.1608 25.0103 24.8038 24.676 24.3391 24.438C23.8858 24.1887 23.3475 24.064 22.7241 24.064C22.3161 24.064 21.9365 24.1263 21.5851 24.251C21.2451 24.3757 20.9561 24.506 20.7181 24.642C20.4801 24.7667 20.3101 24.829 20.2081 24.829C20.0721 24.829 19.9531 24.795 19.8511 24.727C19.7605 24.659 19.6981 24.574 19.6641 24.472C19.6301 24.37 19.6245 24.2623 19.6471 24.149L20.3781 19.525C20.3895 19.423 20.4405 19.3267 20.5311 19.236C20.6331 19.1453 20.7578 19.1 20.9051 19.1H26.0221C26.1581 19.1 26.2715 19.151 26.3621 19.253C26.4641 19.3437 26.5151 19.4627 26.5151 19.61C26.5151 19.746 26.4641 19.865 26.3621 19.967C26.2715 20.0577 26.1581 20.103 26.0221 20.103H21.1431L21.2961 19.95L20.5991 24.081L20.2931 23.86C20.4405 23.7467 20.6501 23.6333 20.9221 23.52C21.2055 23.4067 21.5171 23.3103 21.8571 23.231C22.2085 23.1403 22.5768 23.095 22.9621 23.095C23.6988 23.095 24.3561 23.2593 24.9341 23.588C25.5121 23.9053 25.9655 24.353 26.2941 24.931C26.6341 25.4977 26.8041 26.155 26.8041 26.903C26.8041 27.5037 26.6965 28.059 26.4811 28.569C26.2771 29.079 25.9825 29.5153 25.5971 29.878C25.2118 30.2407 24.7528 30.524 24.2201 30.728C23.6988 30.932 23.1151 31.034 22.4691 31.034Z" fill="white"/>
</g>
<defs>
<clipPath id="clip0">
<rect width="50" height="50" fill="white" transform="translate(0 50) rotate(-90)"/>
</clipPath>
</defs>
</svg>
