<svg width="344" height="535" viewBox="0 0 344 535" fill="none" xmlns="http://www.w3.org/2000/svg">
<path d="M50.4319 51.9859C53.0409 51.9859 55.156 49.8708 55.156 47.2618C55.156 44.6527 53.0409 42.5377 50.4319 42.5377C47.8228 42.5377 45.7078 44.6527 45.7078 47.2618C45.7078 49.8708 47.8228 51.9859 50.4319 51.9859Z" fill="white" fill-opacity="0.2"/>
<path d="M116.611 187.514C119.22 187.514 121.335 185.399 121.335 182.79C121.335 180.18 119.22 178.065 116.611 178.065C114.002 178.065 111.886 180.18 111.886 182.79C111.886 185.399 114.002 187.514 116.611 187.514Z" fill="white" fill-opacity="0.2"/>
<path d="M304.145 267.886C306.754 267.886 308.869 265.77 308.869 263.161C308.869 260.552 306.754 258.437 304.145 258.437C301.536 258.437 299.421 260.552 299.421 263.161C299.421 265.77 301.536 267.886 304.145 267.886Z" fill="white" fill-opacity="0.2"/>
<path d="M4.7241 323.042C7.33315 323.042 9.4482 320.926 9.4482 318.317C9.4482 315.708 7.33315 313.593 4.7241 313.593C2.11505 313.593 0 315.708 0 318.317C0 320.926 2.11505 323.042 4.7241 323.042Z" fill="white" fill-opacity="0.2"/>
<path d="M60.937 529.576C60.9411 530.515 60.6662 531.435 60.1473 532.218C59.6284 533.001 58.8889 533.612 58.0222 533.974C57.1556 534.337 56.201 534.433 55.2792 534.253C54.3575 534.072 53.5101 533.622 52.8444 532.959C52.1788 532.296 51.7247 531.451 51.54 530.53C51.3552 529.609 51.4479 528.654 51.8064 527.786C52.1649 526.917 52.7732 526.175 53.5539 525.653C54.3346 525.131 55.2527 524.852 56.1921 524.852C57.4469 524.852 58.6507 525.349 59.5399 526.234C60.4291 527.119 60.9315 528.321 60.937 529.576Z" fill="white" fill-opacity="0.2"/>
<path d="M338.809 420.735C341.418 420.735 343.533 418.62 343.533 416.011C343.533 413.402 341.418 411.287 338.809 411.287C336.2 411.287 334.085 413.402 334.085 416.011C334.085 418.62 336.2 420.735 338.809 420.735Z" fill="white" fill-opacity="0.2"/>
<path d="M214.304 111.866C214.304 112.8 214.027 113.714 213.508 114.49C212.989 115.267 212.251 115.873 211.388 116.23C210.525 116.588 209.575 116.681 208.659 116.499C207.742 116.317 206.9 115.867 206.24 115.206C205.579 114.546 205.129 113.704 204.947 112.788C204.765 111.871 204.858 110.921 205.216 110.058C205.573 109.195 206.179 108.457 206.956 107.938C207.733 107.419 208.646 107.142 209.58 107.142C210.833 107.142 212.035 107.64 212.921 108.525C213.807 109.411 214.304 110.613 214.304 111.866Z" fill="white" fill-opacity="0.2"/>
<path d="M286.803 9.4482C289.412 9.4482 291.527 7.33315 291.527 4.7241C291.527 2.11505 289.412 0 286.803 0C284.194 0 282.079 2.11505 282.079 4.7241C282.079 7.33315 284.194 9.4482 286.803 9.4482Z" fill="white" fill-opacity="0.2"/>
</svg>
