<svg width="188" height="364" viewBox="0 0 188 364" fill="none" xmlns="http://www.w3.org/2000/svg">
<g style="mix-blend-mode:screen" opacity="0.56">
<path d="M-131.965 297.762C-53.5525 300.435 28.0613 302.511 99.6138 270.358C121.741 260.438 145.345 242.039 142.813 217.872C141.3 203.59 130.5 191.735 118.188 184.382C105.875 177.03 91.7338 173.231 78.366 167.954C61.601 161.31 45.8701 152.308 31.6492 141.219C22.7843 134.183 14.0602 125.318 13.6732 114.096C13.4621 105.478 18.4221 97.7383 21.4475 89.6825C34.393 55.2078 9.69825 15.8082 -23.51 -0.233109C-56.7183 -16.2744 -95.4146 -14.0933 -132 -10.2237L-131.965 297.762Z" fill="white" fill-opacity="0.31"/>
</g>
<g style="mix-blend-mode:screen" opacity="0.56">
<path d="M-86.9648 361.762C-8.55247 364.435 73.0613 366.511 144.614 334.358C166.741 324.438 190.345 306.039 187.813 281.872C186.3 267.59 175.5 255.735 163.188 248.382C150.875 241.03 136.734 237.231 123.366 231.954C106.601 225.31 90.8701 216.308 76.6492 205.219C67.7843 198.183 59.0602 189.318 58.6732 178.096C58.4621 169.478 63.4221 161.738 66.4475 153.682C79.393 119.208 54.6982 79.8082 21.49 63.7669C-11.7183 47.7256 -50.4146 49.9067 -87 53.7763L-86.9648 361.762Z" fill="white" fill-opacity="0.31"/>
</g>
</svg>
