<svg width="50" height="50" viewBox="0 0 50 50" fill="none" xmlns="http://www.w3.org/2000/svg">
<g clip-path="url(#clip0)">
<path d="M27.9106 2.91064C40.0907 2.91064 50 12.8198 50 24.9999C50 37.18 40.0907 47.0894 27.9106 47.0894C27.187 47.0894 26.6004 46.5027 26.6004 45.7792C26.6004 45.0557 27.1871 44.469 27.9106 44.469C38.6459 44.469 47.3796 35.7353 47.3796 25C47.3796 14.2647 38.6458 5.53095 27.9106 5.53095C17.1754 5.53095 8.44161 14.2647 8.44161 25L8.44161 27.273L12.0798 24.0228C12.6193 23.5407 13.4477 23.5875 13.9298 24.127C14.4119 24.6666 14.365 25.495 13.8255 25.977L8.62481 30.6231C7.77345 31.3837 6.48946 31.3837 5.63809 30.6231L0.437409 25.977C0.147569 25.7182 0.000107761 25.3597 0.000107777 24.9995C0.000107791 24.6889 0.110066 24.3769 0.333116 24.127C0.815244 23.5874 1.64356 23.5407 2.18311 24.0228L5.82129 27.273L5.82129 25C5.82129 12.8198 15.7306 2.91064 27.9106 2.91064Z" fill="white"/>
<path d="M24.519 31C24.3717 31 24.247 30.949 24.145 30.847C24.043 30.745 23.992 30.626 23.992 30.49V20.256L24.179 20.426L21.867 21.803C21.799 21.8483 21.7197 21.871 21.629 21.871C21.4703 21.871 21.34 21.8143 21.238 21.701C21.136 21.5763 21.085 21.4517 21.085 21.327C21.085 21.157 21.1757 21.0153 21.357 20.902L24.23 19.168C24.3433 19.1 24.4793 19.0773 24.638 19.1C24.7627 19.1113 24.8647 19.168 24.944 19.27C25.0347 19.3607 25.08 19.474 25.08 19.61V30.49C25.08 30.626 25.0233 30.745 24.91 30.847C24.808 30.949 24.6777 31 24.519 31ZM30.4691 31.034C30.0045 31.034 29.5341 30.9603 29.0581 30.813C28.5935 30.6543 28.1798 30.422 27.8171 30.116C27.7491 30.0593 27.6925 29.9913 27.6471 29.912C27.6131 29.8327 27.5961 29.7533 27.5961 29.674C27.5961 29.5607 27.6415 29.453 27.7321 29.351C27.8228 29.2377 27.9418 29.181 28.0891 29.181C28.2138 29.181 28.3385 29.232 28.4631 29.334C28.7578 29.5607 29.0751 29.7363 29.4151 29.861C29.7665 29.9857 30.1178 30.048 30.4691 30.048C31.1265 30.048 31.7045 29.9177 32.2031 29.657C32.7018 29.3963 33.0871 29.0337 33.3591 28.569C33.6425 28.093 33.7841 27.549 33.7841 26.937C33.7841 26.359 33.6595 25.8603 33.4101 25.441C33.1608 25.0103 32.8038 24.676 32.3391 24.438C31.8858 24.1887 31.3475 24.064 30.7241 24.064C30.3161 24.064 29.9365 24.1263 29.5851 24.251C29.2451 24.3757 28.9561 24.506 28.7181 24.642C28.4801 24.7667 28.3101 24.829 28.2081 24.829C28.0721 24.829 27.9531 24.795 27.8511 24.727C27.7605 24.659 27.6981 24.574 27.6641 24.472C27.6301 24.37 27.6245 24.2623 27.6471 24.149L28.3781 19.525C28.3895 19.423 28.4405 19.3267 28.5311 19.236C28.6331 19.1453 28.7578 19.1 28.9051 19.1H34.0221C34.1581 19.1 34.2715 19.151 34.3621 19.253C34.4641 19.3437 34.5151 19.4627 34.5151 19.61C34.5151 19.746 34.4641 19.865 34.3621 19.967C34.2715 20.0577 34.1581 20.103 34.0221 20.103H29.1431L29.2961 19.95L28.5991 24.081L28.2931 23.86C28.4405 23.7467 28.6501 23.6333 28.9221 23.52C29.2055 23.4067 29.5171 23.3103 29.8571 23.231C30.2085 23.1403 30.5768 23.095 30.9621 23.095C31.6988 23.095 32.3561 23.2593 32.9341 23.588C33.5121 23.9053 33.9655 24.353 34.2941 24.931C34.6341 25.4977 34.8041 26.155 34.8041 26.903C34.8041 27.5037 34.6965 28.059 34.4811 28.569C34.2771 29.079 33.9825 29.5153 33.5971 29.878C33.2118 30.2407 32.7528 30.524 32.2201 30.728C31.6988 30.932 31.1151 31.034 30.4691 31.034Z" fill="white"/>
</g>
<defs>
<clipPath id="clip0">
<rect width="50" height="50" fill="white" transform="matrix(4.37114e-08 -1 -1 -4.37114e-08 50 50)"/>
</clipPath>
</defs>
</svg>
