<svg width="22" height="22" viewBox="0 0 22 22" fill="none" xmlns="http://www.w3.org/2000/svg">
<path d="M3.00688 6.56663C4.18901 6.21285 5.40976 6.60533 6.18782 7.46246L15.7786 2.9802C15.6561 1.71327 16.4383 0.494305 17.7047 0.114916C19.1446 -0.315738 20.66 0.501432 21.0914 1.94064C21.522 3.37959 20.7048 4.89603 19.2657 5.3266C18.269 5.6256 17.2448 5.31636 16.5601 4.62612L6.95729 9.11372C7.02201 9.57386 6.99159 10.0316 6.85899 10.4568L12.5597 14.3479C13.0636 13.8635 13.6646 13.4873 14.3529 13.2812C14.7698 13.1563 15.2005 13.093 15.632 13.093C17.5823 13.093 19.3353 14.3991 19.8956 16.2686C20.2364 17.4081 20.114 18.6122 19.5497 19.6592C18.9852 20.7063 18.0469 21.4708 16.908 21.8116C16.4911 21.9367 16.0605 22 15.6283 22C13.678 22 11.9248 20.6939 11.3653 18.824C11.0679 17.8303 11.1235 16.7872 11.517 15.8423L5.8283 11.9595C5.52712 12.2 5.17837 12.3918 4.7862 12.5093C3.14491 13.0012 1.41735 12.069 0.92492 10.4276C0.43369 8.78662 1.36475 7.05848 3.00688 6.56663ZM12.7619 18.4059C13.1385 19.6639 14.3173 20.5423 15.6282 20.5423C15.9188 20.5423 16.2083 20.4996 16.4897 20.4152C17.2561 20.186 17.8869 19.6718 18.2662 18.9675C18.6457 18.2635 18.7288 17.4534 18.4991 16.6872C18.1224 15.4295 16.943 14.5508 15.632 14.5508C15.3423 14.5508 15.0526 14.5935 14.7714 14.6778C14.0048 14.9074 13.374 15.4216 12.9948 16.1256C12.6146 16.8296 12.5321 17.6397 12.7619 18.4059Z" fill="white"/>
</svg>
