<svg width="25" height="23" viewBox="0 0 25 23" fill="none" xmlns="http://www.w3.org/2000/svg">
<path d="M18.3594 0C17.0028 0 15.759 0.429883 14.6627 1.27773C13.6117 2.09058 12.912 3.12588 12.5 3.87871C12.088 3.12583 11.3883 2.09058 10.3373 1.27773C9.24097 0.429883 7.99722 0 6.64062 0C2.85488 0 0 3.09653 0 7.20283C0 11.6391 3.56167 14.6743 8.95356 19.2691C9.86919 20.0495 10.907 20.9339 11.9857 21.8772C12.1279 22.0018 12.3105 22.0703 12.5 22.0703C12.6895 22.0703 12.8721 22.0018 13.0143 21.8773C14.0931 20.9338 15.1309 20.0494 16.047 19.2687C21.4383 14.6743 25 11.6391 25 7.20283C25 3.09653 22.1451 0 18.3594 0Z" fill="white"/>
</svg>
